<svg width="83" height="47" viewBox="0 0 83 47" fill="none" xmlns="http://www.w3.org/2000/svg">
<path d="M26.1666 38.1645C25.9001 37.6356 25.8871 37.1136 25.8099 36.3923C25.8052 36.3542 25.7839 36.3335 25.7458 36.3301C24.4921 36.2253 23.3607 35.8135 22.3515 35.0949C22.0009 34.8444 21.5751 34.4466 21.1743 34.1381C20.3962 33.537 19.6228 32.9158 18.854 32.2746C17.5767 31.2087 16.4225 29.7529 15.598 28.1901C14.9758 27.0089 14.524 25.989 14.1643 24.6906C13.7436 23.1724 13.5035 22.2267 13.444 21.8533C13.3211 21.0879 13.1949 20.3929 13.0653 19.7685C13.0639 19.7614 13.0607 19.7549 13.0559 19.7495C13.0512 19.7441 13.0452 19.74 13.0384 19.7376C13.0316 19.7353 13.0243 19.7348 13.0172 19.7362C13.0102 19.7375 13.0036 19.7407 12.9982 19.7454C12.8953 19.8316 12.7788 19.8807 12.6485 19.8927C10.7243 20.0737 9.31469 19.3784 8.4197 17.8068C7.79922 16.7168 7.65528 15.5049 7.9879 14.1711C8.04935 13.9246 8.19127 13.5479 8.41369 13.041C8.84716 12.0545 9.47432 11.0723 10.2952 10.0945C13.0176 6.85118 16.3434 4.59935 20.2727 3.33901C22.2303 2.71051 24.2363 2.4684 26.2908 2.61267C28.008 2.73356 29.6517 2.99638 31.2219 3.40113C33.7586 4.05434 36.2342 5.19645 37.7891 7.31538C38.7479 8.6208 38.9463 10.2979 38.1548 11.7306C37.8068 12.3604 37.3329 12.9051 36.7332 13.3646C36.7204 13.3746 36.7106 13.388 36.7048 13.4031C36.6989 13.4183 36.6973 13.4347 36.7001 13.4507C37.0267 15.228 37.3042 16.4593 37.3854 17.893C37.5106 20.1061 37.6138 22.3182 37.2581 24.5323C36.7011 28.0077 34.8366 31.3319 31.9854 33.4588C31.6177 33.7323 31.3051 34.2463 31.0266 34.5378C30.5096 35.0798 29.5278 35.5978 28.8225 35.8312C28.3389 35.9908 27.8454 36.1254 27.3418 36.235C27.3232 36.2389 27.3065 36.2492 27.2946 36.2642C27.2828 36.2792 27.2764 36.2979 27.2766 36.3171C27.29 36.9783 27.1668 37.5921 26.907 38.1585C26.8856 38.2059 26.9006 38.226 26.952 38.2186C27.7465 38.1014 28.6842 38.8458 29.2793 39.3127C29.5899 39.5571 30.4094 38.959 30.711 38.7196C32.4372 37.344 33.7627 35.5337 34.3838 33.3977C34.3918 33.369 34.4109 33.3546 34.4409 33.3546H35.8084C35.8706 33.3546 35.904 33.3854 35.9086 33.4468C36.1704 36.9793 36.3688 40.5289 36.5037 44.0955C36.5039 44.0992 36.5033 44.1028 36.502 44.1062C36.5007 44.1096 36.4987 44.1127 36.4962 44.1153C36.4936 44.1179 36.4906 44.12 36.4873 44.1214C36.4839 44.1229 36.4803 44.1236 36.4767 44.1236H16.9756C16.9599 44.1236 16.9445 44.1205 16.9301 44.1144C16.9158 44.1083 16.9028 44.0994 16.8919 44.0881C16.8811 44.0769 16.8726 44.0636 16.867 44.0491C16.8614 44.0345 16.8588 44.019 16.8593 44.0034L17.197 33.567C17.1983 33.5336 17.2153 33.5176 17.2481 33.5189L18.0025 33.543C18.0166 33.5436 18.0302 33.5481 18.0418 33.5559C18.0533 33.5637 18.0622 33.5745 18.0676 33.5871C19.0404 35.8533 20.7906 38.1235 23.0107 39.2716C23.2238 39.3811 23.4405 39.4439 23.6609 39.4599C23.7431 39.4653 23.8156 39.4419 23.8783 39.3898C24.5907 38.7937 25.1527 38.4551 26.1425 38.2156C26.1726 38.209 26.1806 38.1919 26.1666 38.1645ZM26.1415 12.4218C26.8829 12.5795 27.5248 12.6873 28.0671 12.7454C29.1511 12.861 30.2061 12.8229 31.232 12.6312C32.4612 12.4018 33.429 11.8899 34.2285 10.9832C35.1202 9.9703 35.2915 8.4074 34.5181 7.27931C34.0853 6.64814 33.5072 6.15623 32.7838 5.80358C30.8222 4.84781 28.6762 4.3569 26.4711 4.3559C25.0699 4.35523 23.8727 4.44205 22.8795 4.61638C20.5993 5.01578 18.4823 5.84198 16.5287 7.09497C14.4679 8.41742 12.6746 9.96128 11.1788 11.9149C10.759 12.4639 10.4014 13.0821 10.1028 13.7303C9.78623 14.4195 9.65899 15.1272 9.72111 15.8532C9.81328 16.9242 10.4745 18.0302 11.5004 18.3448C12.7554 18.7302 13.981 18.5081 15.1772 17.6786C15.5352 17.4301 15.8832 17.173 16.2212 16.9071C16.5067 16.6827 16.7942 16.5755 17.1449 16.6366C20.0352 17.1416 22.8534 16.2189 24.795 14.0218C25.1985 13.565 25.5818 13.0587 25.9452 12.503C25.9658 12.4712 25.9957 12.4464 26.0307 12.4319C26.0658 12.4174 26.1044 12.4139 26.1415 12.4218ZM35.6712 15.0948C35.6706 15.0912 35.6693 15.0878 35.6673 15.0848C35.6654 15.0818 35.6628 15.0792 35.6598 15.0772C35.6568 15.0753 35.6534 15.0739 35.6498 15.0733C35.6463 15.0727 35.6426 15.0729 35.6391 15.0738C34.7408 15.2835 33.6528 15.5563 32.3751 15.8923C30.5838 16.3631 28.4678 16.842 27.1564 17.2308C24.3652 18.0583 22.2052 18.8718 19.2037 20.0149C17.8141 20.5439 16.4917 20.9587 15.037 21.4446C14.9924 21.4593 14.9544 21.4895 14.9299 21.5299C14.9053 21.5702 14.8957 21.618 14.9027 21.665L15.1852 23.5745C15.1932 23.6246 15.2216 23.6433 15.2704 23.6306C20.0566 22.4491 24.9143 21.2091 29.8434 19.9107C33.4234 18.9676 35.5022 18.422 36.0799 18.2737C36.1207 18.2637 36.1381 18.2379 36.132 18.1965L35.6712 15.0948ZM15.8114 25.2115C15.9897 25.7178 16.1494 26.1139 16.2903 26.3997C17.2941 28.4445 18.7538 30.34 20.6634 31.7707C22.3906 33.0651 24.3138 33.7253 26.4331 33.7514C27.5201 33.7654 28.4508 33.556 29.4096 33.1102C33.2317 31.3329 35.4698 27.6511 35.9858 23.4833C36.1207 22.3967 36.1888 21.1864 36.1902 19.8526C36.1902 19.8292 36.1788 19.8205 36.1561 19.8266C34.3541 20.3408 32.5838 20.8311 30.8452 21.2973C30.6809 21.3414 27.8714 22.0517 22.4166 23.4282C20.3875 23.9405 18.3584 24.4538 16.3294 24.9681C16.1517 25.0135 15.9921 25.0656 15.8505 25.1244C15.8097 25.1417 15.7967 25.1708 15.8114 25.2115ZM27.1703 42.0699C27.3499 42.0006 27.5135 41.8953 27.6519 41.7599C27.7902 41.6246 27.9006 41.4618 27.9767 41.281C28.0529 41.1001 28.0932 40.9048 28.0954 40.706C28.0977 40.5072 28.0618 40.3089 27.9899 40.1225C27.9179 39.936 27.8113 39.7651 27.6761 39.6193C27.5409 39.4736 27.3798 39.3559 27.202 39.2731C27.0241 39.1902 26.833 39.1438 26.6396 39.1365C26.4461 39.1292 26.2541 39.1611 26.0746 39.2304C25.895 39.2996 25.7313 39.405 25.593 39.5404C25.4546 39.6757 25.3442 39.8385 25.2681 40.0193C25.192 40.2001 25.1517 40.3955 25.1494 40.5943C25.1472 40.7931 25.183 40.9914 25.255 41.1778C25.3269 41.3643 25.4335 41.5352 25.5687 41.681C25.7039 41.8267 25.865 41.9444 26.0429 42.0272C26.2207 42.11 26.4118 42.1565 26.6053 42.1638C26.7987 42.1711 26.9907 42.1392 27.1703 42.0699Z" fill="#393939"/>
<path d="M26.1414 12.4224C26.1043 12.4144 26.0657 12.418 26.0306 12.4324C25.9955 12.4469 25.9657 12.4717 25.945 12.5035C25.5817 13.0592 25.1983 13.5655 24.7949 14.0224C22.8533 16.2194 20.0351 17.1421 17.1447 16.6372C16.7941 16.5761 16.5065 16.6833 16.221 16.9077C15.8831 17.1735 15.5351 17.4307 15.1771 17.6791C13.9809 18.5087 12.7553 18.7307 11.5003 18.3454C10.4744 18.0308 9.81314 16.9247 9.72097 15.8538C9.65886 15.1277 9.78609 14.4201 10.1027 13.7308C10.4012 13.0826 10.7589 12.4645 11.1787 11.9155C12.6744 9.96184 14.4678 8.41797 16.5286 7.09552C18.4822 5.84253 20.5991 5.01634 22.8793 4.61693C23.8725 4.44261 25.0697 4.35578 26.471 4.35645C28.6761 4.35745 30.8221 4.84836 32.7837 5.80413C33.507 6.15679 34.0851 6.6487 34.5179 7.27986C35.2913 8.40796 35.12 9.97085 34.2284 10.9837C33.4289 11.8904 32.4611 12.4024 31.2318 12.6318C30.2059 12.8235 29.151 12.8615 28.067 12.746C27.5246 12.6879 26.8828 12.58 26.1414 12.4224Z" fill="white"/>
<path d="M1.28037 38.9453C2.34735 36.3225 4.92412 34.4941 7.63014 33.8469C9.01604 33.5156 10.4961 33.3489 12.0704 33.3469C14.1048 33.3449 15.3862 33.3416 15.9145 33.3369C15.9236 33.3368 15.9327 33.3385 15.9412 33.342C15.9497 33.3455 15.9573 33.3507 15.9637 33.3573C15.9701 33.3638 15.9751 33.3716 15.9783 33.3802C15.9816 33.3888 15.983 33.3979 15.9826 33.4071L15.4166 44.0598C15.4158 44.077 15.4085 44.0933 15.396 44.1054C15.3835 44.1174 15.3669 44.1244 15.3494 44.1249C12.8198 44.172 10.235 44.182 7.69225 43.9045C5.33522 43.648 2.95414 43.278 0.549017 42.7944C0.517422 42.7881 0.489404 42.7701 0.470622 42.744C0.45184 42.718 0.443694 42.6859 0.44783 42.6542C0.612134 41.4029 0.813507 40.0934 1.28037 38.9453Z" fill="#393939"/>
<path d="M37.6668 42.671C37.4898 40.6773 37.3395 38.6121 37.216 36.4755C37.1569 35.4376 37.0426 34.4117 36.9485 33.4068C36.9478 33.3991 36.9487 33.3913 36.9512 33.3839C36.9537 33.3766 36.9578 33.3699 36.9631 33.3642C36.9684 33.3585 36.9748 33.354 36.982 33.351C36.9891 33.348 36.9968 33.3465 37.0046 33.3467C38.3992 33.3614 39.8298 33.3671 41.2965 33.3637C42.8805 33.3607 44.3742 33.4459 45.9682 33.7955C47.3968 34.1088 48.7123 34.7212 49.9145 35.6329C51.4767 36.8178 52.5313 38.3503 53.0784 40.2304C53.2433 40.7988 53.4013 41.5983 53.5522 42.6289C53.5569 42.6623 53.5446 42.6877 53.5152 42.705C53.423 42.7571 53.2346 42.7381 53.1525 42.7531C51.971 42.9769 50.9574 43.1662 50.1119 43.3212C49.637 43.408 48.4451 43.5656 46.5362 43.794C43.705 44.1337 40.8076 44.1828 37.9153 44.1116C37.8721 44.1107 37.831 44.0933 37.8001 44.0629C37.7693 44.0326 37.751 43.9917 37.749 43.9483C37.7316 43.5236 37.7042 43.0978 37.6668 42.671Z" fill="#393939"/>
</svg>
