<svg width="17" height="19" viewBox="0 0 17 19" fill="none" xmlns="http://www.w3.org/2000/svg">
<path d="M8.49961 5.62549L5.30866 2.41948L6.18042 1.54383L8.49963 3.87256L10.8188 1.54301L11.6906 2.41948L8.49961 5.62549ZM9.1164 18.999H7.88279V11.8782H9.11641L9.1164 18.999ZM9.1164 7.12816H7.88279V-0.000976562H9.11641L9.1164 7.12816ZM10.8188 17.4542L8.49963 15.1255L6.18046 17.4542L5.30868 16.5786L8.49963 13.3725L11.6906 16.5778L10.8188 17.4542ZM0.796111 8.73489L0.478668 7.53705L3.64741 6.69031L2.79705 3.49668L3.98868 3.17614L5.15982 7.56679L0.796111 8.73489ZM16.3833 14.786L10.2391 11.2247L10.8567 10.1508L12.9045 11.3404L16.9984 13.7121L16.3833 14.786ZM6.14752 8.84644L0 5.28594L0.616784 4.21203L6.7602 7.77249L6.14752 8.84644ZM13.0114 15.8227L11.8394 11.4445L16.1982 10.2673L16.5181 11.4643L13.3518 12.316L14.203 15.5014L13.0114 15.8227ZM16.2031 8.73489L11.8394 7.56679L13.0106 3.17531L14.2022 3.49582L13.3518 6.69031L16.5215 7.5387L16.2031 8.73489ZM0.616784 14.786L0 13.7121L6.14752 10.1516L6.7643 11.2256L0.616784 14.786ZM10.855 8.84644L10.2406 7.77249L12.2885 6.59121L16.3824 4.21207L17 5.28598L12.9044 7.66511L10.855 8.84644ZM3.98787 15.8227L2.7962 15.5013L3.64739 12.316L0.477024 11.4601L0.796924 10.2631L5.1557 11.4403L3.98787 15.8227ZM8.48975 12.5142C6.83553 12.5142 5.49357 11.1672 5.49357 9.50561C5.49357 7.844 6.83457 6.49697 8.48879 6.49697C10.143 6.49697 11.484 7.84398 11.484 9.50561C11.484 11.0247 10.3632 12.2808 8.90685 12.4851L8.89107 12.4869C8.77056 12.5042 8.63126 12.5141 8.48975 12.5142ZM8.48975 7.73861C7.51752 7.73861 6.72936 8.53028 6.72936 9.50687C6.72936 10.4835 7.51752 11.2751 8.48975 11.2751C9.46197 11.2751 10.2501 10.4834 10.2501 9.50683C10.2501 8.53025 9.46197 7.73861 8.48975 7.73861Z" fill="#9D9D9D"/>
</svg>
