<svg width="44" height="45" viewBox="0 0 44 45" fill="none" xmlns="http://www.w3.org/2000/svg">
<path d="M9.16666 33.9722C9.16666 37.1219 16.2947 38.5556 22.9167 38.5556C29.5387 38.5556 36.6667 37.1219 36.6667 33.9722C36.6667 31.4715 32.3382 30.3422 29.2197 29.8545L31.35 27.7389C33.0167 26.0723 34.1517 23.949 34.6116 21.6374C35.0715 19.3257 34.8356 16.9296 33.9337 14.7521C33.0317 12.5746 31.5044 10.7134 29.5446 9.4039C27.5849 8.09443 25.2809 7.39551 22.924 7.39551C20.5671 7.39551 18.2631 8.09443 16.3033 9.4039C14.3436 10.7134 12.8163 12.5746 11.9143 14.7521C11.0124 16.9296 10.7765 19.3257 11.2364 21.6374C11.6963 23.949 12.8313 26.0723 14.498 27.7389L16.621 29.8619C13.4952 30.3422 9.16666 31.4715 9.16666 33.9722ZM24.75 14.7222C24.75 14.552 24.7974 14.3851 24.8869 14.2403C24.9764 14.0955 25.1045 13.9785 25.2567 13.9023C25.409 13.8262 25.5794 13.794 25.749 13.8093C25.9185 13.8245 26.0805 13.8867 26.2167 13.9889C27.3518 14.8405 28.2944 15.9222 28.9828 17.1631C29.6712 18.4041 30.0899 19.7764 30.2115 21.1902C30.2518 21.6246 30.1347 22.0589 29.8817 22.4142C29.6287 22.7696 29.2565 23.0222 28.8328 23.1262L26.5833 23.6891V25.7222C26.5833 25.9653 26.4868 26.1985 26.3148 26.3704C26.1429 26.5423 25.9098 26.6389 25.6667 26.6389C25.4235 26.6389 25.1904 26.5423 25.0185 26.3704C24.8466 26.1985 24.75 25.9653 24.75 25.7222V14.7222ZM16.5 16.5556V14.7222C16.5 14.4791 16.5966 14.2459 16.7685 14.074C16.9404 13.9021 17.1735 13.8056 17.4167 13.8056C17.6598 13.8056 17.8929 13.9021 18.0648 14.074C18.2368 14.2459 18.3333 14.4791 18.3333 14.7222V16.5556C18.337 16.8717 18.4236 17.1813 18.5844 17.4535C18.7453 17.7257 18.9748 17.9509 19.25 18.1066V14.7222C19.25 14.4791 19.3466 14.2459 19.5185 14.074C19.6904 13.9021 19.9235 13.8056 20.1667 13.8056C20.4098 13.8056 20.6429 13.9021 20.8148 14.074C20.9868 14.2459 21.0833 14.4791 21.0833 14.7222V18.1066C21.3585 17.9509 21.588 17.7257 21.7489 17.4535C21.9098 17.1813 21.9964 16.8717 22 16.5556V14.7222C22 14.4791 22.0966 14.2459 22.2685 14.074C22.4404 13.9021 22.6735 13.8056 22.9167 13.8056C23.1598 13.8056 23.3929 13.9021 23.5648 14.074C23.7368 14.2459 23.8333 14.4791 23.8333 14.7222V16.5556C23.8303 17.3661 23.5588 18.1528 23.0612 18.7926C22.5637 19.4325 21.8681 19.8894 21.0833 20.0921V25.7222C21.0833 25.9653 20.9868 26.1985 20.8148 26.3704C20.6429 26.5423 20.4098 26.6389 20.1667 26.6389C19.9235 26.6389 19.6904 26.5423 19.5185 26.3704C19.3466 26.1985 19.25 25.9653 19.25 25.7222V20.0921C18.4652 19.8894 17.7697 19.4325 17.2721 18.7926C16.7746 18.1528 16.503 17.3661 16.5 16.5556ZM18.249 31.4899L20.9715 34.2142C21.2269 34.4698 21.5301 34.6725 21.8639 34.8108C22.1976 34.9491 22.5554 35.0203 22.9167 35.0203C23.2779 35.0203 23.6357 34.9491 23.9695 34.8108C24.3032 34.6725 24.6064 34.4698 24.8618 34.2142L27.5843 31.4899C32.6223 32.0729 34.8333 33.4002 34.8333 33.9722C34.8333 34.7936 30.7798 36.7222 22.9167 36.7222C15.0535 36.7222 11 34.7936 11 33.9722C11 33.4002 13.211 32.0729 18.249 31.4899Z" fill="#DE6C53"/>
</svg>
