<svg width="18" height="18" viewBox="0 0 18 18" fill="none" xmlns="http://www.w3.org/2000/svg">
<path d="M11.125 10.4167L9 9.00003V5.45836M2.625 9.00003C2.625 9.83721 2.78989 10.6662 3.11027 11.4396C3.43064 12.2131 3.90022 12.9159 4.49219 13.5078C5.08417 14.0998 5.78694 14.5694 6.56039 14.8898C7.33384 15.2101 8.16282 15.375 9 15.375C9.83718 15.375 10.6662 15.2101 11.4396 14.8898C12.2131 14.5694 12.9158 14.0998 13.5078 13.5078C14.0998 12.9159 14.5694 12.2131 14.8897 11.4396C15.2101 10.6662 15.375 9.83721 15.375 9.00003C15.375 8.16285 15.2101 7.33387 14.8897 6.56042C14.5694 5.78697 14.0998 5.0842 13.5078 4.49222C12.9158 3.90025 12.2131 3.43067 11.4396 3.1103C10.6662 2.78992 9.83718 2.62503 9 2.62503C8.16282 2.62503 7.33384 2.78992 6.56039 3.1103C5.78694 3.43067 5.08417 3.90025 4.49219 4.49222C3.90022 5.0842 3.43064 5.78697 3.11027 6.56042C2.78989 7.33387 2.625 8.16285 2.625 9.00003Z" stroke="#ADADB5" stroke-linecap="round" stroke-linejoin="round"/>
</svg>
