<svg width="14" height="16" viewBox="0 0 14 16" fill="none" xmlns="http://www.w3.org/2000/svg">
<path d="M3.65776 14.8186C3.65776 14.8186 0 14.4435 0 9.47266C0 5.62732 2.90745 3.37639 2.90745 3.37639C2.90745 3.37639 4.1267 4.68943 5.06459 5.15838C6.00248 5.72111 6.37763 0 6.37763 0C6.37763 0 13.1304 3.65776 13.1304 9.19129C13.1304 14.9124 9.37887 14.7248 9.37887 14.7248C9.37887 14.7248 11.0671 12.4739 11.0671 9.84781C11.0671 7.03415 7.40931 3.56397 7.40931 3.56397C7.40931 3.56397 6.94036 7.69067 5.43974 8.2534C3.93912 7.4093 3.09503 6.09626 3.09503 6.09626C3.09503 6.09626 -0.375155 11.536 3.65776 14.8186Z" fill="#9D9D9D"/>
<path d="M6.75277 15.0992C4.877 15.0054 3.28259 13.7862 3.28259 12.098C3.28259 10.4098 3.93911 9.65945 3.93911 9.65945C3.93911 9.65945 4.40806 10.5973 4.97079 11.0663C5.53352 11.5352 6.65898 11.8166 7.22172 11.1601C7.78445 10.5973 7.97203 9.00293 7.97203 9.00293C7.97203 9.00293 9.28507 10.0346 9.09749 11.8166C9.0037 13.6924 8.25339 15.0992 6.75277 15.0992Z" fill="#9D9D9D"/>
</svg>
