<svg width="29" height="28" viewBox="0 0 29 28" fill="none" xmlns="http://www.w3.org/2000/svg">
<path d="M14.4999 7.58333V14.3418L10.0036 18.837C9.89406 18.9465 9.83252 19.0951 9.83252 19.25C9.83252 19.4049 9.89406 19.5535 10.0036 19.663C10.1131 19.7725 10.2617 19.8341 10.4166 19.8341C10.5715 19.8341 10.7201 19.7725 10.8296 19.663L15.4963 14.9963C15.5504 14.9421 15.5933 14.8777 15.6225 14.8068C15.6518 14.7359 15.6667 14.66 15.6666 14.5833V7.58333C15.6666 7.42862 15.6051 7.28025 15.4957 7.17085C15.3863 7.06146 15.238 7 15.0833 7C14.9285 7 14.7802 7.06146 14.6708 7.17085C14.5614 7.28025 14.4999 7.42862 14.4999 7.58333ZM24.4166 18.6667H17.4166C17.2619 18.6667 17.1135 18.7281 17.0041 18.8375C16.8947 18.9469 16.8333 19.0953 16.8333 19.25C16.8333 19.4047 16.8947 19.5531 17.0041 19.6625C17.1135 19.7719 17.2619 19.8333 17.4166 19.8333H24.4166C24.5713 19.8333 24.7197 19.7719 24.8291 19.6625C24.9385 19.5531 24.9999 19.4047 24.9999 19.25C24.9999 19.0953 24.9385 18.9469 24.8291 18.8375C24.7197 18.7281 24.5713 18.6667 24.4166 18.6667Z" fill="#ADADB5"/>
<path d="M23.2501 7.00035C23.0954 7.00035 22.947 7.06181 22.8376 7.17121C22.7282 7.2806 22.6668 7.42898 22.6668 7.58369V8.22302C21.7434 7.10753 20.5846 6.21021 19.2735 5.59541C17.9624 4.98061 16.5315 4.66357 15.0834 4.66702C13.4526 4.66706 11.847 5.06929 10.4087 5.8381C8.9705 6.6069 7.74406 7.71854 6.83807 9.07456C5.93208 10.4306 5.37449 11.9891 5.21471 13.6121C5.05492 15.235 5.29787 16.8724 5.92203 18.379C6.54618 19.8857 7.53229 21.2152 8.79298 22.2497C10.0537 23.2842 11.5501 23.9919 13.1496 24.3099C14.7491 24.628 16.4023 24.5467 17.9629 24.0732C19.5235 23.5997 20.9432 22.7486 22.0963 21.5954C22.2061 21.4854 22.2678 21.3362 22.2677 21.1808C22.2676 21.0253 22.2057 20.8763 22.0957 20.7664C21.9857 20.6566 21.8366 20.5949 21.6811 20.5951C21.5257 20.5952 21.3766 20.657 21.2668 20.767C20.0067 22.0296 18.3909 22.8768 16.6358 23.1953C14.8808 23.5138 13.0703 23.2883 11.4469 22.549C9.82362 21.8097 8.46502 20.592 7.55317 19.0589C6.64133 17.5259 6.21981 15.7507 6.34509 13.9714C6.47037 12.1921 7.13647 10.4935 8.25413 9.10335C9.37179 7.71319 10.8876 6.69781 12.5985 6.19328C14.3094 5.68874 16.1337 5.71915 17.8268 6.28043C19.5199 6.84171 21.0011 7.90704 22.0718 9.33369H20.9168C20.7621 9.33369 20.6137 9.39514 20.5043 9.50454C20.3949 9.61394 20.3334 9.76231 20.3334 9.91702C20.3334 10.0717 20.3949 10.2201 20.5043 10.3295C20.6137 10.4389 20.7621 10.5004 20.9168 10.5004H23.2501C23.4048 10.5004 23.5532 10.4389 23.6626 10.3295C23.772 10.2201 23.8334 10.0717 23.8334 9.91702V7.58369C23.8334 7.42898 23.772 7.2806 23.6626 7.17121C23.5532 7.06181 23.4048 7.00035 23.2501 7.00035Z" fill="#ADADB5"/>
<path d="M20.9165 11.667C20.7618 11.667 20.6135 11.7284 20.5041 11.8378C20.3947 11.9472 20.3332 12.0956 20.3332 12.2503V12.885C19.5022 13.0054 18.7284 13.3786 18.1167 13.9537C17.505 14.5289 17.085 15.2783 16.9137 16.1003C16.8791 16.27 16.8826 16.4453 16.9242 16.6135C16.9657 16.7817 17.0442 16.9385 17.1539 17.0725C17.2636 17.2066 17.4018 17.3145 17.5584 17.3885C17.715 17.4625 17.8862 17.5007 18.0594 17.5003H23.776C23.9493 17.5007 24.1204 17.4625 24.277 17.3885C24.4336 17.3145 24.5718 17.2066 24.6815 17.0725C24.7912 16.9385 24.8697 16.7817 24.9112 16.6135C24.9528 16.4453 24.9564 16.27 24.9217 16.1003C24.7503 15.278 24.3299 14.5284 23.7178 13.9531C23.1056 13.3779 22.3313 13.005 21.4999 12.885V12.2503C21.4999 12.0956 21.4384 11.9472 21.329 11.8378C21.2196 11.7284 21.0713 11.667 20.9165 11.667Z" fill="#ADADB5"/>
</svg>
