<svg width="16" height="17" viewBox="0 0 16 17" fill="none" xmlns="http://www.w3.org/2000/svg">
<g clip-path="url(#clip0_1691_722)">
<path d="M6.66663 2.77733L7.99996 3.444L9.33329 2.77733M7.99996 1.444V5.77733L9.99996 6.924M11.9519 4.2893L12.0413 5.7773L13.2853 6.59863M13.7733 4.77733L10.0206 6.944L10.0273 9.24933M13.2853 9.62263L12.0413 10.444L11.9519 11.932M13.7733 11.444L10.0206 9.27733L8.0273 10.436M9.33329 13.444L7.99996 12.7773L6.66663 13.444M7.99996 14.7774V10.444L5.99996 9.29735M4.04797 11.932L3.95864 10.444L2.71464 9.62263M2.22668 11.444L5.97935 9.27733L5.97268 6.972M2.71464 6.59863L3.95864 5.7773L4.04797 4.2893M2.22668 4.77733L5.97935 6.944L7.97268 5.78533" stroke="#ADADB5" stroke-linecap="round" stroke-linejoin="round"/>
</g>
<defs>
<clipPath id="clip0_1691_722">
<rect width="16" height="16" fill="white" transform="translate(0 0.110657)"/>
</clipPath>
</defs>
</svg>
