<svg width="212" height="97" viewBox="0 0 212 97" fill="none" xmlns="http://www.w3.org/2000/svg">
<path d="M158.739 8.84203C153.871 8.36351 150.094 11.898 150.082 17.054C150.053 29.3558 150.035 41.658 150.113 53.9594C150.124 55.6954 149.68 56.4839 147.975 56.8C145.91 57.1828 143.902 57.8889 141.865 58.4389C141.282 58.5963 140.685 58.6976 139.827 58.8821C139.827 53.9369 139.827 49.1793 139.827 44.0069C139.157 44.5859 138.806 44.8483 138.502 45.1595C135.115 48.6247 131.741 52.1029 128.354 55.567C123.506 60.5249 118.974 60.2443 114.628 54.598C114.229 54.867 113.817 55.1453 113.235 55.5132C108.043 58.5151 102.753 59.8242 96.9295 58.3696C90.7759 55.7504 88.0237 50.9713 88.1953 43.997C87.4819 44.6877 87.0676 45.0694 86.6742 45.4726C83.1484 49.0864 79.6346 52.7127 76.1003 56.3176C73.5341 58.935 70.3104 59.7018 67.3691 58.4379C64.1779 57.0665 62.4356 54.2472 62.4218 50.416C62.4146 48.4373 62.4205 46.4586 62.4205 44.2037C59.1757 47.4887 56.1625 50.5392 53.0536 53.639C51.1794 55.2676 49.4008 56.847 47.6222 58.4264C42.2556 60.3317 38.3997 57.1929 37.2283 53.8453C36.9072 52.9275 36.7801 51.902 36.7499 50.9198C36.6707 48.3434 36.6939 45.7637 36.6734 42.8971C36.6797 33.35 36.6908 24.091 36.6914 14.8321C36.6914 14.4711 36.5911 14.1102 36.5419 13.6282C35.7396 9.84716 32.4884 8.28281 28.9293 9.84217C23.7267 12.1216 20.4967 18.1016 21.2726 24.1007C21.267 27.0784 21.2931 29.9146 21.3191 32.7507C21.2712 34.0123 21.1848 35.2738 21.1817 36.5355C21.1671 42.6048 21.1513 48.6744 21.1967 54.7433C21.2049 55.8334 20.876 56.3434 19.8264 56.6042C16.9416 57.3213 14.0818 58.1446 10.9078 59.0088C10.9078 49.0747 10.9078 39.3431 10.9095 29.3285C10.888 28.4149 10.8646 27.7843 10.8413 27.1537C10.8413 19.8739 10.8413 12.5941 10.8413 5.10633C10.4399 5.41031 10.1216 5.61629 9.84268 5.86825C7.68428 7.81778 5.1704 8.44581 2.3809 7.93448C0.591504 7.60649 0.525086 7.44019 1.06772 5.62993C1.18694 5.23219 1.33439 4.84339 1.50133 4.35551C2.18882 4.46254 2.82783 4.59339 3.47312 4.6562C5.01799 4.8066 6.49079 4.55173 7.62039 3.38168C11.4518 -0.586989 17.5462 0.221489 20.2081 4.81634C20.2807 4.94175 20.432 5.01912 20.3442 4.94268C23.0717 3.78173 25.5908 2.41692 28.2712 1.63376C32.8532 0.294941 37.4352 0.226424 41.5648 3.26382C42.3116 3.81308 42.9561 4.5089 43.7858 5.28958C46.1577 8.26397 47.0486 11.4992 47.0332 15.1233C46.9802 27.6666 47.0129 40.2102 47.013 52.7536C47.013 53.3473 47.013 53.941 47.013 54.6406C49.2013 52.4964 51.1952 50.5427 53.1891 48.589C56.074 45.6614 58.9795 42.7546 61.8189 39.7812C62.1922 39.3902 62.392 38.659 62.3939 38.0844C62.4244 28.9038 62.4542 19.7226 62.3722 10.5426C62.3531 8.40319 61.9189 6.26768 61.6468 3.87678C65.166 2.9115 68.7944 1.91627 72.7095 0.84239C72.7095 18.8817 72.7095 36.6205 72.7095 54.817C73.3883 54.2431 73.7387 53.993 74.0362 53.6884C78.4386 49.1805 82.8689 44.7002 87.192 40.1133C87.8145 39.4528 88.2027 38.2731 88.209 37.3303C88.2792 26.7254 88.288 16.1196 88.2151 5.5148C88.2046 3.98577 88.6708 3.41024 90.084 3.09615C92.8408 2.48342 95.553 1.65956 98.4049 0.941269C98.526 0.95942 98.555 1.00343 98.5446 1.10947C98.5444 1.28509 98.5546 1.35468 98.5456 1.54219C98.5405 1.89781 98.5547 2.13551 98.569 2.37321C98.5472 7.90868 98.5131 13.4441 98.5064 18.9796C98.4961 27.522 98.5067 36.0645 98.5033 44.6069C98.5024 46.8579 99.3559 48.5809 101.562 49.7197C103.905 50.9368 107.138 49.9459 109.153 46.7067C109.184 46.5059 109.147 46.3595 109.104 46.2219C109.098 46.2307 109.119 46.228 109.119 46.228C109.565 45.9754 110.158 45.8345 110.433 45.4524C112.659 42.3658 113.953 38.9148 113.96 35.0368C113.977 25.1243 113.989 15.2117 113.94 5.29943C113.934 4.0181 114.24 3.44491 115.543 3.18976C117.553 2.79623 119.508 2.11321 121.492 1.57047C122.273 1.3566 123.067 1.18975 124.069 0.950183C124.126 1.79155 124.207 2.44443 124.208 3.09735C124.215 18.2297 124.213 33.3621 124.216 48.4945C124.216 49.1791 124.249 49.8637 124.255 50.8194C124.276 51.5391 124.308 51.9878 124.34 52.4365C124.315 52.9717 124.291 53.5069 124.267 54.2449C124.449 54.4195 124.629 54.3912 124.81 54.3629C129.582 49.4953 134.378 44.6515 139.091 39.7241C139.576 39.2177 139.753 38.2124 139.755 37.4374C139.796 25.9386 139.784 14.4395 139.784 2.94055C139.784 2.32376 139.784 1.70697 139.784 0.834555C142.678 1.3333 145.33 1.87033 148.007 2.2139C149.135 2.35877 150.326 2.178 151.467 2.00053C153.685 1.65548 155.888 1.20823 158.325 0.795153C158.611 0.775469 158.67 0.763955 158.867 0.77545C160.259 0.79846 161.514 0.798459 162.94 0.798459C162.398 2.8723 161.804 4.62104 161.509 6.42138C161.225 8.14996 160.521 9.06742 158.739 8.84203Z" fill="#796668"/>
<path d="M168.725 51.1261C164.203 43.1345 164.373 34.8589 167.322 26.5963C169.1 21.6157 172.815 18.1892 177.675 15.8123C182.152 13.8942 186.557 13.514 191.054 14.7372C191.563 11.6741 189.42 8.90736 186.514 8.72017C183.76 8.5427 181.367 9.51855 179.307 11.3157C178.617 11.9176 178.142 11.8855 177.426 11.4482C175.36 10.1866 173.252 8.99748 171.161 7.77988C172.534 6.48708 173.739 4.89864 175.311 3.95357C181.501 0.232038 187.95 -0.802176 194.37 3.29774C199.055 6.29035 201.413 10.8277 201.533 16.5136C201.599 19.6212 201.561 22.731 201.57 26.1108C201.581 26.7162 201.592 27.0506 201.578 27.5198C201.572 28.2024 201.591 28.7502 201.609 29.2979C201.621 37.5135 201.634 45.7292 201.642 54.1364C201.741 54.36 201.844 54.392 201.946 54.424C203.563 52.8082 205.221 51.2329 206.787 49.5668C208.984 47.2297 209.175 45.071 207.555 42.2514C207.426 42.028 207.302 41.8025 207.14 41.5152C207.84 40.7962 208.518 40.1004 209.185 39.4164C212.119 41.6348 212.906 46.883 210.424 50.1621C208.362 52.8872 205.896 55.3623 203.305 57.5724C200.821 59.6907 196.919 59.3195 194.25 57.2399C193.845 56.9239 193.451 56.5921 193.388 56.541C190.55 57.3566 188.04 58.4291 185.442 58.7552C178.927 59.5731 173.588 57.0714 169.404 51.9175C169.206 51.6743 169.005 51.4347 168.725 51.1261ZM175.781 42.5383C175.807 47.2243 178.918 50.8108 183.174 51.0639C187.126 51.2987 190.799 48.1536 191.153 43.715C191.444 40.0623 191.162 36.3614 191.213 32.411C191.229 30.7755 191.303 29.138 191.25 27.505C191.132 23.9389 188.769 21.7622 185.314 21.9621C180.387 22.2472 176.113 26.4993 175.894 31.571C175.74 35.1528 175.865 38.7473 175.781 42.5383Z" fill="#796668"/>
<path d="M55.1003 96.4588C54.4598 96.5847 53.9312 96.6682 53.2911 96.7845C50.0054 96.7857 46.8299 96.7932 43.6588 96.6753C43.2394 96.6597 42.6826 96.0723 42.5019 95.6186C42.4102 95.388 42.9414 94.6705 43.3216 94.5193C43.9212 94.2806 44.6449 94.2103 45.2913 94.2877C46.8682 94.4764 47.4887 93.5931 47.558 92.211C47.7057 89.265 47.7583 86.314 47.8373 83.1322C47.8178 82.7866 47.8111 82.6737 47.8263 82.4123C47.8147 80.738 47.7874 79.2119 47.7452 77.6863C47.7208 76.8035 47.8519 76.1495 48.9668 76.141C49.9957 76.1333 50.336 76.598 50.3058 77.5716C50.1324 83.1739 50.7138 88.8191 49.3595 94.4783C50.6534 94.4783 51.9183 94.4783 53.2894 94.4888C53.7354 94.3999 54.0753 94.3006 54.5271 94.1962C55.3906 93.8691 56.2002 93.6434 56.8847 93.2096C62.3362 89.7546 63.276 80.1632 58.6675 75.2869C57.1636 73.6956 55.3729 72.6517 53.1424 72.2255C52.7859 72.1431 52.5157 72.1176 52.1198 72.0596C49.2163 71.5392 46.5946 71.9741 44.1671 73.4666C40.9242 75.4604 39.6438 79.2368 41.0831 82.6401C41.377 83.1187 41.6588 83.4934 41.9407 83.8681C42.4595 84.2766 42.9255 84.8168 43.5091 85.0638C44.46 85.4662 44.3723 86.03 44.0569 86.8022C43.6807 87.7231 42.9919 87.6337 42.4375 87.2194C41.3422 86.4009 40.346 85.4425 39.2401 84.4761C38.9343 83.8481 38.6972 83.2857 38.4023 82.6272C36.6876 75.0164 42.4692 70.1015 48.7256 69.6152C49.5901 69.5481 50.4625 69.5883 51.5763 69.6109C52.2661 69.6872 52.7108 69.7313 53.2736 69.8111C54.915 70.4335 56.5247 70.8553 57.9448 71.6391C61.6564 73.6875 63.3304 77.2118 64.1291 81.4032C64.1636 81.8671 64.2123 82.2037 64.261 82.5403C64.2276 85.5216 63.7251 88.3865 62.2508 91.006C60.6566 93.8388 58.2817 95.605 55.1003 96.4588Z" fill="#DE6C53"/>
<path d="M138.512 82.5078C138.535 81.991 138.629 81.4648 138.567 80.9591C138.403 79.6334 138.985 79.1606 140.333 79.2964C140.605 79.3546 140.743 79.4288 140.951 79.6757C141.038 80.745 141.056 81.6416 141.053 82.6843C141.04 85.2986 140.945 87.7728 141.082 90.2334C141.219 92.6885 142.993 94.184 145.027 93.8045C147.105 93.4167 149.285 90.547 149.526 88.3851C149.742 86.4379 150.36 84.5378 150.86 82.5623C151.018 82.3203 151.117 82.1329 151.216 81.9455C154.637 78.3373 157.936 77.9447 162.509 80.6951C162.745 80.7203 162.831 80.6699 162.917 80.6196C162.876 79.4812 163.515 79.2689 164.467 79.3255C165.576 79.3914 165.397 80.1793 165.389 80.8821C165.383 81.3443 165.329 81.8058 165.274 82.4974C165.263 82.8716 165.275 83.0161 165.287 83.1606C165.218 85.6909 165.115 88.221 165.095 90.7518C165.086 91.9647 165.43 93.1239 166.663 93.5911C167.878 94.0517 169.079 93.7355 169.902 92.74C170.855 91.5862 171.585 90.24 172.498 89.0475C172.757 88.7103 173.319 88.6184 173.741 88.414C173.877 88.8847 174.246 89.4456 174.111 89.8113C173.317 91.9699 172.119 93.8662 170.162 95.1221C166.745 97.3143 163.503 95.8032 162.953 92.0615C161.655 93.1731 160.247 94.3778 158.767 95.6496C158.173 95.8468 157.651 95.9771 157.027 96.1438C154.082 96.1161 151.923 94.8052 150.376 92.1188C148.716 94.1176 147.091 95.8994 144.529 96.0596C141.862 96.2263 140.051 94.8747 138.978 92.5933C137.747 93.5803 136.687 94.6892 135.416 95.4007C131.729 97.464 127.603 94.8888 127.909 90.6169C128.106 87.861 128.859 85.147 129.353 82.4688C127.542 82.5628 125.625 82.6623 123.707 82.7619C123.399 84.4761 123.173 86.3042 122.733 88.0765C121.122 94.571 114.468 97.9148 108.57 95.1078C107.185 94.4486 106.067 93.1968 104.725 92.1376C101.035 96.1931 96.4541 97.5693 91.4542 94.6524C87.3854 92.2787 87.1391 88.2034 88.3055 84.0124C86.4159 83.689 84.6131 83.3804 82.6419 83.0236C82.4354 83.0731 82.3973 83.1709 82.3591 83.2686C82.8871 85.4146 83.3097 87.5314 82.7671 89.7873C81.8068 93.7796 78.5484 96.3375 74.5236 96.0688C70.6785 95.8122 67.815 92.9161 67.3966 88.8729C67.1735 86.7168 67.5081 84.681 68.6195 82.6883C71.9127 78.7379 74.6799 78.0814 79.4273 80.0251C79.5689 80.083 79.7746 80.2695 79.8234 80.2301C81.3722 78.9797 82.2995 80.69 83.4801 81.0671C86.2544 81.9532 88.8631 82.0586 91.3655 80.2028C94.6584 77.7607 98.8437 78.8264 100.466 82.6208C100.078 83.2307 99.639 83.6407 99.2001 84.0506C98.7708 83.5402 98.3414 83.0297 97.8758 82.4116C96.0151 80.7088 94.1287 80.7763 92.1648 82.5541C89.7872 85.2264 89.5592 89.018 91.5358 91.5721C93.3996 93.9806 97.4984 94.7323 100.396 93.0328C102.596 91.7429 104.252 90.0983 104.14 87.0588C104.086 85.5802 104.919 84.0672 105.35 82.5698C106.546 80.9349 107.96 79.612 109.966 79.1107C112.746 78.4161 114.954 79.6322 115.958 82.612C115.73 88.6237 111.604 89.6423 106.699 90.238C107.507 91.1958 107.983 91.9987 108.662 92.5227C111.393 94.6281 115.632 94.3579 118.22 91.9773C120.98 89.4384 121.642 86.1084 121.549 82.5055C121.096 82.0323 120.684 81.5056 120.18 81.1C119.599 80.633 119.349 80.1957 119.878 79.5329C120.319 78.9797 120.675 78.4999 121.51 79.0531C124.054 80.7388 126.818 80.7592 129.652 79.9966C131.516 79.495 132.31 80.2363 132.007 82.4791C131.366 85.4105 130.593 88.0978 130.303 90.839C130.07 93.0414 132.09 94.3545 134.166 93.6982C136.014 93.1138 138.493 90.0072 138.56 88.0243C138.622 86.1882 138.534 84.3468 138.512 82.5078ZM113.571 82.2958C112.223 80.4233 110.344 80.4961 108.086 82.6172C107.62 83.4205 107.008 84.1718 106.714 85.0368C105.737 87.9109 106.145 88.3641 109.099 87.9221C112.228 87.454 113.924 85.4134 113.571 82.2958ZM157.942 93.6507C158.295 93.4627 158.647 93.2747 159.206 93.0144C162.116 90.7534 162.598 87.4241 162.919 84.0377C162.943 83.7777 162.725 83.443 162.534 83.22C161.112 81.5573 157.96 80.7611 155.854 81.5159C153.281 82.4376 152.243 84.5363 152.04 87.103C151.854 89.4479 152.297 91.7447 154.419 93.0454C155.319 93.5967 156.616 93.463 157.942 93.6507ZM71.7428 82.6064C69.9818 84.3935 69.5142 86.6057 69.9334 89.0045C70.3167 91.198 71.3842 92.9565 73.6033 93.6566C75.5887 94.283 77.3926 93.859 78.8464 92.337C81.1759 89.8982 81.1138 85.0865 78.6924 82.3167C76.9878 80.6918 73.8977 80.433 71.7428 82.6064Z" fill="#DE6C53"/>
</svg>
