<svg width="104" height="47" viewBox="0 0 104 47" fill="none" xmlns="http://www.w3.org/2000/svg">
<path d="M77.8118 3.92561C75.4137 3.69606 73.5535 5.3915 73.5475 7.86479C73.5331 13.7659 73.5245 19.6671 73.5625 25.568C73.5679 26.4007 73.3496 26.779 72.5098 26.9306C71.4924 27.1142 70.5033 27.4529 69.4999 27.7168C69.2128 27.7922 68.9187 27.8408 68.4959 27.9294C68.4959 25.5572 68.4959 23.275 68.4959 20.7939C68.1663 21.0716 67.9931 21.1974 67.8433 21.3467C66.1753 23.009 64.5134 24.6774 62.8448 26.3391C60.4566 28.7174 58.2246 28.5828 56.0835 25.8743C55.8873 26.0034 55.6843 26.1368 55.3975 26.3133C52.8403 27.7533 50.2343 28.3813 47.366 27.6835C44.3349 26.4271 42.9792 24.1346 43.0637 20.7891C42.7123 21.1204 42.5082 21.3035 42.3144 21.497C40.5777 23.2305 38.847 24.9699 37.106 26.6992C35.842 27.9547 34.2541 28.3226 32.8053 27.7163C31.2334 27.0584 30.3752 25.706 30.3684 23.8682C30.3648 22.9191 30.3677 21.9699 30.3677 20.8883C28.7694 22.464 27.2852 23.9273 25.7539 25.4143C24.8307 26.1955 23.9546 26.9531 23.0785 27.7107C20.4351 28.6247 18.5357 27.1191 17.9588 25.5133C17.8006 25.073 17.738 24.581 17.7231 24.1099C17.6841 22.8741 17.6955 21.6366 17.6854 20.2615C17.6885 15.6818 17.694 11.2404 17.6943 6.79898C17.6943 6.62583 17.6449 6.45268 17.6206 6.22147C17.2255 4.40775 15.624 3.65735 13.8709 4.40536C11.3082 5.49877 9.71721 8.36733 10.0994 11.245C10.0966 12.6734 10.1095 14.0339 10.1223 15.3944C10.0987 15.9995 10.0562 16.6047 10.0547 17.2099C10.0474 20.1213 10.0396 23.0328 10.062 25.944C10.066 26.4669 9.90403 26.7115 9.38703 26.8367C7.96606 27.1806 6.55743 27.5756 4.99397 27.9901C4.99397 23.2248 4.99397 18.5567 4.99484 13.7528C4.98421 13.3145 4.97272 13.012 4.96122 12.7095C4.96122 9.21749 4.96122 5.72544 4.96122 2.13363C4.76353 2.27944 4.60673 2.37825 4.46933 2.49911C3.40617 3.43428 2.1679 3.73554 0.793861 3.49026C-0.0875449 3.33293 -0.12026 3.25316 0.147025 2.38479C0.205751 2.194 0.27838 2.0075 0.360612 1.77347C0.69925 1.8248 1.01401 1.88757 1.33186 1.91771C2.09282 1.98985 2.81828 1.86759 3.3747 1.30633C5.26196 -0.597404 8.26389 -0.209585 9.57504 1.99452C9.61082 2.05468 9.68534 2.09179 9.64209 2.05513C10.9856 1.49823 12.2264 0.843544 13.5467 0.467866C15.8037 -0.174351 18.0606 -0.207217 20.0948 1.24979C20.4626 1.51326 20.7801 1.84704 21.1888 2.22153C22.3571 3.64832 22.7959 5.20024 22.7884 6.93869C22.7623 12.9556 22.7784 18.9726 22.7784 24.9896C22.7784 25.2744 22.7784 25.5592 22.7784 25.8947C23.8563 24.8662 24.8385 23.929 25.8206 22.9918C27.2416 21.5875 28.6728 20.1932 30.0714 18.7668C30.2553 18.5793 30.3537 18.2285 30.3546 17.9529C30.3697 13.549 30.3844 9.14491 30.3439 4.74136C30.3345 3.7151 30.1207 2.69071 29.9866 1.54382C31.7201 1.08079 33.5073 0.603384 35.4358 0.0882556C35.4358 8.74153 35.4358 17.2507 35.4358 25.9794C35.7702 25.7041 35.9428 25.5841 36.0893 25.438C38.2578 23.2756 40.4401 21.1264 42.5695 18.9261C42.8762 18.6093 43.0674 18.0434 43.0704 17.5912C43.1051 12.5041 43.1094 7.4166 43.0735 2.32957C43.0683 1.59611 43.2979 1.32003 43.994 1.16936C45.352 0.875444 46.6879 0.480242 48.0927 0.135687C48.1523 0.144394 48.1666 0.165504 48.1615 0.216369C48.1614 0.300616 48.1664 0.333997 48.162 0.423941C48.1595 0.594529 48.1665 0.708551 48.1735 0.822573C48.1628 3.47789 48.146 6.13319 48.1427 8.78851C48.1376 12.8862 48.1428 16.9839 48.1412 21.0817C48.1407 22.1615 48.5612 22.988 49.6476 23.5342C50.802 24.1181 52.3944 23.6427 53.3871 22.0889C53.4023 21.9926 53.384 21.9224 53.3627 21.8563C53.3596 21.8606 53.3703 21.8593 53.3703 21.8593C53.5899 21.7381 53.8819 21.6706 54.0176 21.4873C55.1137 20.0067 55.7512 18.3512 55.7546 16.491C55.7631 11.7361 55.7688 6.98107 55.7449 2.22626C55.7418 1.61161 55.8926 1.33666 56.5345 1.21426C57.5245 1.0255 58.4877 0.697854 59.4646 0.437506C59.8495 0.334918 60.2404 0.25488 60.7344 0.139963C60.7621 0.543557 60.8023 0.856738 60.8025 1.16994C60.806 8.4288 60.8049 15.6877 60.8064 22.9465C60.8064 23.2749 60.8229 23.6033 60.826 24.0617C60.836 24.407 60.8519 24.6222 60.8677 24.8375C60.8555 25.0942 60.8433 25.3509 60.8317 25.705C60.9212 25.7887 61.0102 25.7751 61.0991 25.7615C63.4498 23.4266 65.8122 21.1031 68.1338 18.7394C68.3724 18.4965 68.4595 18.0143 68.4608 17.6425C68.481 12.1267 68.4748 6.61068 68.4748 1.09472C68.4748 0.798854 68.4748 0.502984 68.4748 0.0844968C69.9002 0.323739 71.2069 0.581348 72.5253 0.746157C73.0812 0.815649 73.6675 0.728933 74.2295 0.643803C75.3223 0.478285 76.4076 0.263747 77.6076 0.0655963C77.7484 0.0561541 77.7775 0.0506308 77.8747 0.0561449C78.5605 0.0671824 79.1783 0.0671824 79.881 0.0671824C79.6138 1.06198 79.3214 1.90084 79.1758 2.76445C79.0361 3.59362 78.6896 4.03373 77.8118 3.92561Z" fill="#796668"/>
<path d="M82.7307 24.2087C80.503 20.3752 80.5869 16.4055 82.0395 12.442C82.9151 10.0529 84.7451 8.40917 87.1389 7.269C89.3445 6.34891 91.5139 6.16654 93.7291 6.75331C93.98 5.28394 92.9241 3.95678 91.4929 3.86698C90.1361 3.78185 88.9575 4.24996 87.943 5.11202C87.6032 5.40077 87.3691 5.38538 87.0164 5.17562C85.9987 4.57041 84.9604 4.00001 83.9302 3.41594C84.6068 2.79579 85.2004 2.03383 85.9747 1.58049C89.0238 -0.204691 92.2004 -0.700794 95.3624 1.2659C97.6704 2.70142 98.8317 4.87793 98.8908 7.60543C98.9232 9.0961 98.9049 10.5879 98.9092 12.2091C98.9146 12.4995 98.92 12.6599 98.9132 12.885C98.9101 13.2124 98.9192 13.4752 98.9283 13.7379C98.9344 17.6789 98.9404 21.6198 98.9447 25.6527C98.9934 25.76 99.0439 25.7753 99.0944 25.7907C99.8907 25.0156 100.707 24.2599 101.479 23.4607C102.561 22.3396 102.655 21.3041 101.857 19.9516C101.794 19.8444 101.732 19.7362 101.653 19.5984C101.998 19.2535 102.332 18.9198 102.66 18.5917C104.105 19.6558 104.493 22.1733 103.27 23.7463C102.255 25.0535 101.04 26.2408 99.7634 27.3009C98.5401 28.3171 96.6182 28.139 95.3035 27.1414C95.1037 26.9899 94.9097 26.8307 94.8788 26.8062C93.4808 27.1974 92.2447 27.7119 90.9648 27.8683C87.7556 28.2607 85.1261 27.0606 83.0647 24.5883C82.9675 24.4717 82.8682 24.3567 82.7307 24.2087ZM86.2059 20.0892C86.219 22.3371 87.7511 24.0575 89.8479 24.1788C91.7942 24.2915 93.6037 22.7828 93.778 20.6537C93.9214 18.9015 93.7822 17.1262 93.8075 15.2312C93.8155 14.4467 93.852 13.6612 93.8255 12.8779C93.7678 11.1672 92.6036 10.1231 90.9016 10.219C88.4748 10.3558 86.3696 12.3954 86.2619 14.8283C86.1859 16.5464 86.2472 18.2707 86.2059 20.0892Z" fill="#796668"/>
<path d="M26.762 45.954C26.4465 46.0143 26.1862 46.0544 25.8708 46.1102C24.2524 46.1108 22.6882 46.1143 21.1262 46.0578C20.9196 46.0503 20.6454 45.7686 20.5564 45.5509C20.5112 45.4403 20.7729 45.0961 20.9601 45.0236C21.2555 44.9091 21.612 44.8754 21.9303 44.9125C22.7071 45.003 23.0128 44.5793 23.0469 43.9163C23.1196 42.5032 23.1456 41.0876 23.1844 39.5613C23.1749 39.3955 23.1715 39.3414 23.179 39.216C23.1733 38.4128 23.1599 37.6808 23.1391 36.949C23.1271 36.5255 23.1916 36.2118 23.7408 36.2077C24.2476 36.204 24.4152 36.4269 24.4004 36.8939C24.315 39.5813 24.6013 42.2893 23.9343 45.0039C24.5716 45.0039 25.1947 45.0039 25.87 45.009C26.0897 44.9663 26.2571 44.9187 26.4797 44.8686C26.905 44.7117 27.3038 44.6034 27.641 44.3954C30.3262 42.738 30.7892 38.1371 28.5191 35.798C27.7783 35.0346 26.8963 34.5339 25.7976 34.3295C25.622 34.29 25.4889 34.2777 25.2939 34.2499C23.8637 34.0003 22.5723 34.2089 21.3766 34.9248C19.7793 35.8812 19.1485 37.6927 19.8575 39.3253C20.0023 39.5549 20.1411 39.7346 20.2799 39.9143C20.5355 40.1103 20.765 40.3694 21.0525 40.4879C21.5209 40.6809 21.4777 40.9514 21.3223 41.3218C21.137 41.7635 20.7977 41.7206 20.5247 41.5219C19.9851 41.1293 19.4945 40.6695 18.9497 40.206C18.7991 39.9047 18.6823 39.635 18.537 39.3191C17.6924 35.6683 20.5403 33.3106 23.622 33.0774C24.0478 33.0451 24.4775 33.0644 25.0262 33.0753C25.366 33.1119 25.585 33.133 25.8622 33.1713C26.6708 33.4699 27.4636 33.6722 28.1632 34.0482C29.9914 35.0308 30.8159 36.7214 31.2093 38.7319C31.2264 38.9544 31.2504 39.1159 31.2743 39.2774C31.2579 40.7075 31.0103 42.0817 30.2842 43.3383C29.4989 44.6972 28.3291 45.5444 26.762 45.954Z" fill="#DE6C53"/>
<path d="M67.8481 39.2621C67.8595 39.0142 67.9062 38.7618 67.8754 38.5192C67.7948 37.8833 68.0812 37.6565 68.7453 37.7217C68.8792 37.7496 68.9473 37.7852 69.0496 37.9036C69.0926 38.4166 69.1013 38.8466 69.0999 39.3468C69.0933 40.6009 69.0468 41.7877 69.1145 42.968C69.182 44.1457 70.0554 44.8631 71.0574 44.681C72.0811 44.495 73.155 43.1185 73.2734 42.0814C73.3801 41.1474 73.6843 40.2359 73.9306 39.2883C74.0084 39.1722 74.0571 39.0823 74.1058 38.9924C75.791 37.2616 77.4163 37.0733 79.6686 38.3926C79.7847 38.4047 79.8272 38.3805 79.8698 38.3564C79.8494 37.8103 80.1641 37.7085 80.6332 37.7356C81.1791 37.7672 81.0912 38.1452 81.0871 38.4823C81.0845 38.704 81.0577 38.9254 81.0304 39.2572C81.0252 39.4367 81.0312 39.506 81.0372 39.5753C81.0032 40.7891 80.9523 42.0027 80.9425 43.2167C80.9378 43.7985 81.1075 44.3546 81.7148 44.5787C82.3135 44.7996 82.9049 44.648 83.3101 44.1704C83.7797 43.617 84.1391 42.9712 84.5891 42.3992C84.7164 42.2374 84.9932 42.1933 85.2014 42.0953C85.2684 42.3211 85.4499 42.5902 85.3836 42.7656C84.9923 43.801 84.4024 44.7107 83.4383 45.3131C81.7554 46.3647 80.1581 45.6398 79.8875 43.845C79.2479 44.3782 78.5547 44.9561 77.8254 45.5661C77.5326 45.6607 77.2759 45.7232 76.9683 45.8032C75.5179 45.7899 74.4542 45.1611 73.6922 43.8725C72.8743 44.8312 72.0744 45.686 70.8123 45.7628C69.4986 45.8428 68.6062 45.1944 68.0781 44.1001C67.4717 44.5735 66.9494 45.1055 66.3231 45.4468C64.5071 46.4365 62.475 45.2012 62.6255 43.152C62.7226 41.83 63.0934 40.5281 63.3366 39.2434C62.4449 39.2885 61.5006 39.3362 60.5557 39.384C60.404 40.2063 60.2927 41.0833 60.0762 41.9334C59.2826 45.0487 56.005 46.6527 53.0999 45.3063C52.4176 44.99 51.867 44.3895 51.2058 43.8815C49.3881 45.8268 47.1318 46.487 44.6689 45.0878C42.6648 43.9491 42.5434 41.9943 43.118 39.9839C42.1872 39.8287 41.2992 39.6807 40.3282 39.5095C40.2265 39.5333 40.2077 39.5802 40.189 39.6271C40.449 40.6565 40.6572 41.6719 40.3899 42.754C39.9169 44.6691 38.3119 45.8961 36.3294 45.7672C34.4354 45.6441 33.0249 44.2549 32.8188 42.3154C32.7089 41.2812 32.8738 40.3046 33.4212 39.3487C35.0433 37.4538 36.4064 37.1388 38.7448 38.0712C38.8146 38.099 38.9159 38.1884 38.9399 38.1696C39.7028 37.5698 40.1596 38.3901 40.7411 38.571C42.1077 38.9961 43.3926 39.0467 44.6252 38.1564C46.2472 36.985 48.3088 37.4962 49.1077 39.3163C48.9168 39.6089 48.7006 39.8056 48.4844 40.0022C48.2729 39.7574 48.0614 39.5125 47.832 39.216C46.9155 38.3992 45.9863 38.4316 45.019 39.2844C43.8478 40.5662 43.7355 42.385 44.7091 43.6102C45.6272 44.7655 47.6462 45.1261 49.0736 44.3109C50.157 43.6921 50.9727 42.9032 50.9177 41.4452C50.8909 40.7359 51.3011 40.0102 51.5135 39.2919C52.1027 38.5077 52.7991 37.8731 53.7873 37.6326C55.1567 37.2994 56.2443 37.8828 56.7391 39.3121C56.6266 42.1959 54.5943 42.6845 52.1779 42.9702C52.5762 43.4297 52.8105 43.8148 53.1453 44.0662C54.4903 45.0762 56.5785 44.9465 57.8531 43.8046C59.2124 42.5867 59.5385 40.9893 59.493 39.261C59.2699 39.034 59.067 38.7814 58.8185 38.5868C58.5325 38.3628 58.409 38.1531 58.6696 37.8351C58.8871 37.5697 59.0624 37.3396 59.4736 37.605C60.7265 38.4136 62.0881 38.4233 63.4841 38.0576C64.4024 37.8169 64.7935 38.1725 64.6442 39.2484C64.3284 40.6545 63.9475 41.9436 63.8048 43.2585C63.6902 44.315 64.6851 44.9449 65.7074 44.6301C66.6179 44.3497 67.8391 42.8595 67.8721 41.9083C67.9027 41.0276 67.8591 40.1443 67.8481 39.2621ZM55.5632 39.1605C54.899 38.2622 53.9737 38.2971 52.8611 39.3146C52.6316 39.7 52.3305 40.0604 52.1856 40.4753C51.7041 41.8539 51.9052 42.0714 53.3604 41.8593C54.9016 41.6348 55.7372 40.6559 55.5632 39.1605ZM77.4193 44.6073C77.5928 44.5171 77.7664 44.4269 78.0416 44.3021C79.4749 43.2175 79.7127 41.6204 79.8705 39.996C79.8826 39.8713 79.775 39.7107 79.681 39.6038C78.9803 38.8062 77.428 38.4243 76.3904 38.7863C75.1234 39.2285 74.6119 40.2352 74.5117 41.4664C74.4202 42.5913 74.6384 43.693 75.6839 44.3169C76.127 44.5814 76.7661 44.5172 77.4193 44.6073ZM34.9596 39.3095C34.0922 40.1667 33.8619 41.2279 34.0684 42.3786C34.2572 43.4308 34.783 44.2743 35.8761 44.6101C36.8541 44.9106 37.7426 44.7072 38.4587 43.9771C39.6061 42.8073 39.5755 40.4991 38.3828 39.1705C37.5432 38.391 36.0211 38.2669 34.9596 39.3095Z" fill="#DE6C53"/>
</svg>
